<?xml version="1.0" encoding="utf-8"?>
<?xml-stylesheet type="text/xsl" href="rss1.xsl"?>
<rss version="2.0" xmlns:atom="http://www.w3.org/2005/Atom" xmlns:content="http://purl.org/rss/1.0/modules/content/" xmlns:dc="http://purl.org/dc/elements/1.1/" xmlns:media="http://search.yahoo.com/mrss/">
<channel>
 <title>Getty</title>
 <link>http://www.gettyimg.com/</link>
 <atom:link href="http://www.gettyimg.com/" rel="self" type="application/rss+xml" />

 
                <item>
                <title><![CDATA[【Cinema Center】MOVIE - Aquamarine (2006) 1080p BluRay x264 - BARC0DE]]></title>
                <link><![CDATA[https://sharemania.us/threads/aquamarine-2006-1080p-bluray-x264-barc0de.237621/]]></link>
                <description><![CDATA[<article>
<blockquote class="messageText SelectQuoteContainer ugc baseHtml">
<div style="text-align: center"><img src="https://i.pinimg.com/originals/4a/76/86/4a76868030bc8f5dbb14ca42aba442ce.png" class="bbCodeImage LbImage" alt="[​IMG]" data-url="https://i.pinimg.com/originals/4a/76/86/4a76868030bc8f5dbb14ca42aba442ce.png" style=""> <br>
<br>
Two teenage girls discover a mermaid in their beach club's swimming pool.<br>
<br>
Download:<br>
<br>
<div class="bbCodeBlock bbCodeVfcHH HiddenContent">
<div class="attribution type">Hidden Content:</div>
<blockquote>You must either reply or click 'Like' to see the hidden information contained here.</blockquote>
</div></div>
<div class="messageTextEndMarker">&nbsp;</div>
</blockquote>
</article>]]></description>
                <author><![CDATA[sunnyillion]]></author>
                </item>

                
                <item>
                <title><![CDATA[【Cinema Center】MOVIE - An American Tail: Fievel Goes West (1991) 1080p BluRay x264 - USURY]]></title>
                <link><![CDATA[https://sharemania.us/threads/an-american-tail-fievel-goes-west-1991-1080p-bluray-x264-usury.237623/]]></link>
                <description><![CDATA[<article>
<blockquote class="messageText SelectQuoteContainer ugc baseHtml">
<div style="text-align: center"><img src="https://m.media-amazon.com/images/M/MV5BZmUyOTE4YmItN2E0Zi00M2ViLWIxMTctMmZhMDRhMDZhOWZlXkEyXkFqcGdeQXVyNjExODE1MDc@._V1_.jpg" class="bbCodeImage LbImage" alt="[​IMG]" data-url="https://m.media-amazon.com/images/M/MV5BZmUyOTE4YmItN2E0Zi00M2ViLWIxMTctMmZhMDRhMDZhOWZlXkEyXkFqcGdeQXVyNjExODE1MDc@._V1_.jpg" style=""> <br>
<br>
Fievel's family decides to move out to the West, unaware that they are falling into a trap perpetrated by a smooth-talking cat.<br>
<br>
Download:<br>
<br>
<div class="bbCodeBlock bbCodeVfcHH HiddenContent">
<div class="attribution type">Hidden Content:</div>
<blockquote>You must either reply or click 'Like' to see the hidden information contained here.</blockquote>
</div></div>
<div class="messageTextEndMarker">&nbsp;</div>
</blockquote>
</article>]]></description>
                <author><![CDATA[sunnyillion]]></author>
                </item>

                
                <item>
                <title><![CDATA[【Music Videos】Vengaboys - Boom Boom Boom Boom (1080p 5.1) (Clean)]]></title>
                <link><![CDATA[https://sharemania.us/threads/vengaboys-boom-boom-boom-boom-1080p-5-1-clean.237624/]]></link>
                <description><![CDATA[<article>
<blockquote class="messageText SelectQuoteContainer ugc baseHtml">
<img src="https://i.ibb.co/VwVPMKV/Vengaboys-Boom-Boom-Boom-Boom-1080p-5-1-mp4-thumbs-2024-02-12-21-01-41.jpg" class="bbCodeImage LbImage" alt="[​IMG]" data-url="https://i.ibb.co/VwVPMKV/Vengaboys-Boom-Boom-Boom-Boom-1080p-5-1-mp4-thumbs-2024-02-12-21-01-41.jpg" style=""> <br>
<br>
<div class="ToggleTriggerAnchor bbCodeSpoilerContainer">
<button type="button" class="button bbCodeSpoilerButton ToggleTrigger Tooltip JsOnly" data-target="> .SpoilerTarget"><span>Spoiler: <span class="SpoilerTitle">MediaInfo</span></span></button>
<div class="SpoilerTarget bbCodeSpoilerText">Vengaboys - Boom Boom Boom Boom (1080p 5.1).mp4<br>
Format : MPEG-4<br>
Format profile : Base Media / Version 2<br>
Codec ID : mp42 (mp42/mp41)<br>
File size : 250 MiB<br>
Duration : 3 min 23 s<br>
Overall bit rate mode : Variable<br>
Overall bit rate : 10.3 Mb/s<br>
Frame rate : 25.000 FPS<br>
Encoded date : 2024-02-12 23:56:50 UTC<br>
Tagged date : 2024-02-12 23:57:30 UTC<br>
TIM : 00:00:00:00<br>
TSC : 25<br>
TSZ : 1<br>
<br>
Video<br>
ID : 1<br>
Format : AVC<br>
Format/Info : Advanced Video Codec<br>
Format profile : Main@L4.1<br>
Format settings : CABAC / 4 Ref Frames<br>
Format settings, CABAC : Yes<br>
Format settings, Reference : 4 frames<br>
Format settings, GOP : M=4, N=25<br>
Codec ID : avc1<br>
Codec ID/Info : Advanced Video Coding<br>
Duration : 3 min 23 s<br>
Bit rate : 9 981 kb/s<br>
Width : 1 920 pixels<br>
Height : 1 080 pixels<br>
Display aspect ratio : 16:9<br>
Frame rate mode : Constant<br>
Frame rate : 25.000 FPS<br>
Color space : YUV<br>
Chroma subsampling : 4:2:0<br>
Bit depth : 8 bits<br>
Scan type : Progressive<br>
Bits/(Pixel*Frame) : 0.193<br>
Stream size : 242 MiB (97%)<br>
Language : English<br>
Encoded date : 2024-02-12 23:56:50 UTC<br>
Tagged date : 2024-02-12 23:56:50 UTC<br>
Color range : Limited<br>
Color primaries : BT.709<br>
Transfer characteristics : BT.709<br>
Matrix coefficients : BT.709<br>
Codec configuration box : avcC<br>
<br>
Audio<br>
ID : 2<br>
Format : AAC LC<br>
Format/Info : Advanced Audio Codec Low Complexity<br>
Codec ID : mp4a-40-2<br>
Duration : 3 min 23 s<br>
Source duration : 3 min 23 s<br>
Bit rate mode : Variable<br>
Bit rate : 317 kb/s<br>
Maximum bit rate : 358 kb/s<br>
Channel(s) : 6 channels<br>
Channel layout : C L R Ls Rs LFE<br>
Sampling rate : 48.0 kHz<br>
Frame rate : 46.875 FPS (1024 SPF)<br>
Compression mode : Lossy<br>
Stream size : 7.70 MiB (3%)<br>
Source stream size : 7.70 MiB (3%)<br>
Language : English<br>
Encoded date : 2024-02-12 23:56:50 UTC<br>
Tagged date : 2024-02-12 23:56:50 UTC</div>
</div><br>
<div class="bbCodeBlock bbCodeVfcHH HiddenContent">
<div class="attribution type">Hidden Content:</div>
<blockquote>You must reply before you can see the hidden data contained here.</blockquote>
</div>
<div class="messageTextEndMarker">&nbsp;</div>
</blockquote>
</article>]]></description>
                <author><![CDATA[DJ-RoGeRs-BS]]></author>
                </item>

                
                <item>
                <title><![CDATA[【Cinema Center】MOVIE - Aliens In The Attic (2009) 720p Bluray X264 - BARC0DE]]></title>
                <link><![CDATA[https://sharemania.us/threads/aliens-in-the-attic-2009-720p-bluray-x264-barc0de.237622/]]></link>
                <description><![CDATA[<article>
<blockquote class="messageText SelectQuoteContainer ugc baseHtml">
<div style="text-align: center"><img src="https://prod-ripcut-delivery.disney-plus.net/v1/variant/disney/3A3BCE34D71F4554BBED6DD52EA12E9C9D381FF8E1BEADE19651C530D281A91D/scale?width=1200&amp;aspectRatio=1.78&amp;format=webp" class="bbCodeImage LbImage" alt="[​IMG]" data-url="https://prod-ripcut-delivery.disney-plus.net/v1/variant/disney/3A3BCE34D71F4554BBED6DD52EA12E9C9D381FF8E1BEADE19651C530D281A91D/scale?width=1200&amp;aspectRatio=1.78&amp;format=webp" style=""> <br>
<br>
A group of kids must protect their vacation home from invading aliens.<br>
<br>
Download:<br>
<br>
<div class="bbCodeBlock bbCodeVfcHH HiddenContent">
<div class="attribution type">Hidden Content:</div>
<blockquote>You must either reply or click 'Like' to see the hidden information contained here.</blockquote>
</div></div>
<div class="messageTextEndMarker">&nbsp;</div>
</blockquote>
</article>]]></description>
                <author><![CDATA[sunnyillion]]></author>
                </item>

                </channel></rss>